<svg width="128" height="40" viewBox="0 0 128 40" fill="none" xmlns="http://www.w3.org/2000/svg">
<path d="M19.7728 30.6161C19.3539 33.3922 18.1307 35.7237 15.8185 37.3694C12.5595 39.6925 9.01158 40.0375 5.43849 38.2463C1.94499 36.4967 0.0558513 33.5543 0.0223405 29.6312C-0.0279256 22.9818 0.0223405 16.3324 0.0223405 9.68304C0.055433 7.2835 0.974808 4.97942 2.60621 3.20766C4.23762 1.4359 6.46763 0.31964 8.87338 0.0705249C13.8707 -0.45727 18.6501 2.97962 19.6219 7.77549C19.606 8.02487 19.6819 8.27153 19.8356 8.46953C20.4764 5.29445 22.0515 2.82586 24.8622 1.28819C26.1831 0.527114 27.6681 0.0897527 29.1937 0.0124128C30.7192 -0.064927 32.2414 0.219984 33.6336 0.843509C35.6428 1.70255 37.3088 3.19727 38.3717 5.09442C39.4346 6.99157 39.8347 9.18443 39.5094 11.3308C39.1842 13.4773 38.1519 15.4565 36.5737 16.9597C34.9955 18.4629 32.9601 19.4055 30.7852 19.6405H28.6447C24.037 18.9963 21.2347 16.3158 19.9277 11.9147C19.8398 12.0519 19.8021 12.081 19.8021 12.1142C19.8314 17.7412 19.7225 23.3641 19.8565 28.9912C19.7706 29.5284 19.7426 30.0731 19.7728 30.6161Z" fill="#012E5D"/>
<path d="M28.6364 19.6321H30.7769C31.9263 19.8754 33.0487 20.2304 34.128 20.6918C38.497 22.7698 40.7255 28.1973 39.0415 32.7189C36.478 39.6052 28.0374 41.5667 22.705 36.4924C21.1849 35.0518 20.1891 33.1518 19.8734 31.0898C19.8421 30.9396 19.803 30.7912 19.7561 30.6451C19.7224 30.1009 19.7477 29.5548 19.8314 29.016C19.836 29.0511 19.843 29.0858 19.8524 29.1199C19.8524 29.1199 19.8524 29.0991 19.8524 29.0908C19.9571 24.9807 22.106 22.2461 25.7168 20.484C26.6593 20.0061 27.673 19.9105 28.6364 19.6321Z" fill="#E54D3C"/>
<path d="M107.634 14.2836C107.634 10.9132 107.634 7.54281 107.634 4.17241C107.634 3.57396 107.751 3.34124 108.396 3.39526C108.954 3.44644 109.515 3.44644 110.072 3.39526C110.583 3.35786 110.713 3.52826 110.709 4.03112C110.709 7.73815 110.709 11.4493 110.709 15.1564C110.709 15.8047 110.679 16.453 110.709 17.1013C110.738 17.5792 110.625 17.7621 110.093 17.7455C108.836 17.6998 107.613 17.7122 106.377 17.7455C106.214 17.7673 106.049 17.7296 105.912 17.6394C105.774 17.5492 105.675 17.4126 105.632 17.2551C104.459 14.454 103.275 11.6585 102.08 8.86853C101.711 8.00827 101.33 7.15218 100.877 6.10906C100.877 9.91167 100.877 13.5023 100.877 17.0972C100.877 17.6374 100.722 17.7829 100.203 17.7455C99.5739 17.7081 98.9431 17.7081 98.3139 17.7455C97.895 17.7663 97.8322 17.6208 97.8322 17.2509C97.8322 12.818 97.8322 8.39478 97.8322 3.98126C97.8322 3.48255 98.0123 3.39527 98.4605 3.40358C99.72 3.43406 100.977 3.43406 102.23 3.40358C102.404 3.3794 102.58 3.41885 102.725 3.51453C102.871 3.61022 102.977 3.75554 103.022 3.92307C104.4 7.19373 105.804 10.4561 107.211 13.7184C107.299 13.9179 107.395 14.1091 107.487 14.3086L107.634 14.2836Z" fill="#012E5D"/>
<path d="M54.1925 10.4311C56.2073 11.7319 56.9027 13.4524 56.1068 15.3184C55.4031 16.9807 53.9831 17.6623 52.2866 17.7122C49.857 17.787 47.4233 17.7122 44.9938 17.7413C44.6 17.7413 44.5121 17.6166 44.5121 17.2467C44.5121 12.8138 44.5121 8.37117 44.5121 3.91885C44.5121 3.50327 44.6671 3.40353 45.0608 3.40769C47.2432 3.40769 49.4298 3.38275 51.608 3.40769C53.9119 3.44509 55.5664 4.89963 55.7675 6.98172C55.8806 8.20354 55.4114 9.23419 54.1925 10.4311ZM49.7691 14.936C50.3765 14.936 50.9838 14.936 51.5912 14.936C51.7994 14.9462 52.0074 14.9142 52.2027 14.8421C52.398 14.7701 52.5765 14.6593 52.7273 14.5167C52.8782 14.374 52.9982 14.2024 53.0801 14.0123C53.162 13.8222 53.2042 13.6176 53.2039 13.4108C53.204 13.2032 53.162 12.9977 53.0803 12.8065C52.9986 12.6153 52.8789 12.4424 52.7284 12.2981C52.5779 12.1538 52.3996 12.0411 52.2043 11.9667C52.0089 11.8922 51.8004 11.8576 51.5912 11.8649C50.4016 11.8649 49.2077 11.8649 48.0139 11.8649C47.6788 11.8649 47.5196 11.9438 47.528 12.3054C47.528 13.041 47.528 13.7807 47.528 14.5163C47.528 14.8862 47.6788 14.9693 48.0139 14.9568C48.5962 14.9236 49.1826 14.936 49.7691 14.936ZM49.6141 6.20874C49.0528 6.20874 48.4915 6.20874 47.9386 6.20874C47.6579 6.20874 47.5197 6.28769 47.5197 6.58691C47.5197 7.38483 47.5197 8.18693 47.5197 8.98901C47.5197 9.22589 47.5825 9.37134 47.8589 9.36718C49.0276 9.36718 50.1963 9.36719 51.3608 9.32563C51.7575 9.29786 52.1277 9.11784 52.3928 8.82378C52.6579 8.52972 52.7971 8.14474 52.7808 7.75055C52.766 7.34566 52.5962 6.96162 52.3059 6.67668C52.0155 6.39174 51.6266 6.22734 51.2184 6.21703C50.6948 6.18794 50.1545 6.20458 49.6141 6.20458V6.20874Z" fill="#012E5D"/>
<path d="M89.0982 17.8909C88.1296 17.8981 87.1692 17.7143 86.2728 17.3502C85.3764 16.9862 84.5618 16.4491 83.8764 15.7702C83.1909 15.0913 82.6482 14.284 82.2797 13.3953C81.9113 12.5066 81.7244 11.5541 81.7299 10.5932C81.7533 8.6489 82.5542 6.79344 83.9564 5.43498C85.3586 4.07653 87.2473 3.32637 89.207 3.34952C91.1667 3.37267 93.0369 4.16723 94.4062 5.55841C95.7754 6.9496 96.5315 8.82344 96.5082 10.7677C96.4762 12.6868 95.678 14.5148 94.2886 15.8503C92.8993 17.1859 91.0325 17.9198 89.0982 17.8909ZM89.1693 6.18382C86.7314 6.18382 84.8465 8.09551 84.8423 10.614C84.8784 11.4433 85.1586 12.244 85.6484 12.917C86.1382 13.5901 86.816 14.106 87.5981 14.4009C88.3802 14.6959 89.2323 14.757 90.049 14.5767C90.8658 14.3965 91.6114 13.9827 92.1936 13.3865C92.7759 12.7904 93.1693 12.038 93.3253 11.2224C93.4812 10.4069 93.3929 9.56384 93.0711 8.79755C92.7494 8.03125 92.2083 7.37532 91.5149 6.91079C90.8214 6.44627 90.006 6.19353 89.1693 6.18382Z" fill="#012E5D"/>
<path d="M60.7772 12.056C60.9074 12.7997 60.9356 13.5574 60.861 14.3085C60.861 14.7947 61.0076 14.9111 61.4725 14.9028C63.4999 14.9028 65.5273 14.9028 67.5505 14.9028C68.0867 14.9028 68.338 14.9942 68.271 15.5802C68.1914 16.2825 68.5642 17.2425 68.1202 17.629C67.6762 18.0155 66.7966 17.7454 66.1012 17.7495C63.6466 17.7495 61.1961 17.7495 58.7414 17.7495C58.4398 17.7495 58.0963 17.9947 57.8785 17.7828C57.6607 17.5708 57.7696 17.1012 57.7696 16.7521C57.7696 12.5298 57.7696 8.31157 57.7486 4.08922C57.7486 3.5448 57.9078 3.42429 58.4314 3.42845C61.4697 3.44784 64.508 3.44784 67.5464 3.42845C68.0825 3.42845 68.3297 3.52402 68.271 4.11415C68.2249 4.64789 68.2249 5.18459 68.271 5.71833C68.3087 6.20457 68.1202 6.31677 67.6595 6.30846C65.6111 6.30846 63.5627 6.30846 61.5144 6.30846C61.0201 6.30846 60.8233 6.42067 60.861 6.936C60.9049 7.51561 60.9049 8.09769 60.861 8.6773C60.8275 9.13861 61.0076 9.23417 61.4306 9.23002C63.2318 9.23002 65.0331 9.23002 66.8343 9.20508C67.3621 9.20508 67.5045 9.36303 67.45 9.84926C67.3746 10.5516 67.76 11.5116 67.295 11.8981C66.8761 12.2472 65.9714 12.0103 65.276 12.0144C64.0194 12.0144 62.7627 12.0144 61.5061 12.0144C61.2638 11.9624 61.0118 11.9768 60.7772 12.056Z" fill="#012E5D"/>
<path d="M50.6155 36.2764C47.3063 36.3886 43.6703 32.744 44.0389 28.4219C44.1113 27.4124 44.3941 26.4289 44.8695 25.5335C45.3449 24.6381 46.0025 23.8505 46.8006 23.2203C47.5988 22.5902 48.5201 22.1313 49.5063 21.8728C50.4925 21.6143 51.522 21.5617 52.5297 21.7185C54.9006 22.0883 56.572 23.4265 57.7532 25.4587C58.0004 25.8743 57.9543 26.1071 57.4474 26.186C57.2922 26.2138 57.1405 26.2584 56.9951 26.319C55.8473 26.772 55.0137 26.7803 53.9958 25.6748C52.115 23.6343 48.6592 24.5361 47.5618 27.1377C47.1694 27.9712 47.0501 28.9056 47.2206 29.8098C47.3912 30.714 47.843 31.5425 48.5126 32.1788C48.9256 32.5917 49.425 32.9094 49.9755 33.1094C50.5261 33.3094 51.1142 33.3867 51.6983 33.336C52.2823 33.2852 52.8479 33.1076 53.355 32.8156C53.8621 32.5237 54.2983 32.1247 54.6325 31.6468C54.6704 31.5633 54.7247 31.4882 54.7922 31.4259C54.8598 31.3636 54.9393 31.3153 55.026 31.284C55.1126 31.2526 55.2047 31.2387 55.2969 31.2432C55.389 31.2477 55.4793 31.2705 55.5625 31.3102C56.1594 31.5061 56.7662 31.6711 57.3804 31.8047C57.8873 31.9128 57.9962 32.0998 57.7197 32.5653C56.2829 34.9466 54.2304 36.264 50.6155 36.2764Z" fill="#E54D3C"/>
<path d="M102.993 31.8005H99.4949C99.3273 31.8005 99.1095 31.7257 99.0131 31.9252C98.9168 32.1247 99.0676 32.2701 99.1597 32.4197C99.3239 32.7136 99.5532 32.9666 99.8305 33.1596C100.108 33.3525 100.426 33.4804 100.76 33.5335C101.279 33.6438 101.815 33.6483 102.335 33.5469C102.856 33.4455 103.35 33.2401 103.788 32.9434C103.88 32.8636 103.991 32.8082 104.111 32.782C104.23 32.7559 104.354 32.7599 104.471 32.7938C105.079 32.9641 105.682 33.1428 106.289 33.3049C106.708 33.4171 106.708 33.6083 106.478 33.9241C106.017 34.5466 105.433 35.0696 104.762 35.4611C104.091 35.8526 103.346 36.1046 102.574 36.2016C101.686 36.3733 100.769 36.3292 99.9021 36.0731C99.0351 35.817 98.2434 35.3565 97.5948 34.7309C96.9461 34.1053 96.4597 33.3333 96.1771 32.4806C95.8945 31.628 95.8242 30.7202 95.972 29.8348C96.0854 28.8021 96.5037 27.8256 97.1744 27.0278C97.8451 26.23 98.7383 25.6466 99.742 25.3506C100.692 25.0088 101.72 24.9382 102.708 25.1469C103.697 25.3555 104.606 25.835 105.334 26.5309C105.981 27.1057 106.485 27.8212 106.807 28.6215C107.129 29.4217 107.26 30.2851 107.19 31.1439C107.19 31.6177 107.001 31.8462 106.457 31.8255C105.313 31.7797 104.161 31.8255 103.014 31.8255L102.993 31.8005ZM104.061 29.5314C103.897 29.0283 103.585 28.5856 103.164 28.261C102.743 27.9364 102.234 27.7448 101.702 27.7111C101.184 27.6697 100.664 27.774 100.202 28.0122C99.7409 28.2503 99.3563 28.6126 99.0928 29.0576C98.9043 29.3735 98.9168 29.5397 99.3525 29.5356C100.898 29.5231 102.448 29.5314 104.061 29.5314Z" fill="#E54D3C"/>
<path d="M86.9283 26.1569C87.5033 25.6765 88.1861 25.3401 88.9194 25.1759C89.6527 25.0117 90.415 25.0246 91.1423 25.2135C92.0673 25.3934 92.903 25.8803 93.512 26.594C94.1211 27.3078 94.4672 28.206 94.4933 29.1408C94.5394 31.2852 94.4933 33.4297 94.4933 35.5741C94.4933 35.9897 94.3299 36.1102 93.9362 36.1019C93.2869 36.1019 92.6293 36.0728 91.98 36.1019C91.5318 36.1019 91.3978 35.9523 91.402 35.5201C91.402 33.7331 91.402 31.946 91.402 30.159C91.402 28.9123 90.6898 28.0271 89.651 27.9024C89.0653 27.8214 88.4703 27.9601 87.9822 28.2914C87.4942 28.6226 87.1482 29.1226 87.012 29.6936C86.883 30.4203 86.8437 31.1599 86.8948 31.8961C86.8948 33.1013 86.8948 34.3066 86.8948 35.5118C86.8948 35.9523 86.7523 36.1185 86.3167 36.106C85.6674 36.106 85.014 36.0769 84.3605 36.106C83.9416 36.106 83.8243 35.9523 83.8243 35.5533C83.8243 32.2923 83.8243 29.0314 83.8243 25.7704C83.8243 25.3548 83.9626 25.2218 84.3689 25.2426C84.9088 25.2738 85.4501 25.2738 85.99 25.2426C86.5932 25.1969 87.0665 25.2302 86.9283 26.1569Z" fill="#E54D3C"/>
<path d="M74.475 26.1776C75.0488 25.6919 75.732 25.3503 76.4669 25.1818C77.2018 25.0133 77.9668 25.0227 78.6973 25.2093C79.622 25.3836 80.4587 25.8666 81.0683 26.578C81.6779 27.2895 82.0238 28.1865 82.0484 29.12C82.1028 31.2852 82.0484 33.4504 82.0735 35.6156C82.0735 36.0062 81.9269 36.1184 81.5499 36.1018C80.9007 36.0769 80.2472 36.0686 79.5937 36.1018C79.1288 36.1267 78.9696 35.9771 78.9738 35.4992C78.9989 33.7371 78.9738 31.9709 78.9738 30.2047C78.9738 28.908 78.291 28.0394 77.1935 27.9106C76.5978 27.8233 75.9913 27.9692 75.502 28.3174C75.0127 28.6656 74.679 29.1888 74.5713 29.7766C74.3451 30.8613 74.4875 31.9584 74.4624 33.0514C74.4624 33.8826 74.4624 34.747 74.4624 35.5948C74.4624 35.9688 74.3367 36.1101 73.9555 36.1018C73.256 36.1018 72.5565 36.1018 71.8611 36.1018C71.5051 36.1018 71.3962 35.9689 71.3962 35.6239C71.3962 32.3214 71.3962 29.0161 71.3962 25.708C71.3962 25.2924 71.5553 25.2176 71.9156 25.2301C72.5001 25.2633 73.0861 25.2633 73.6707 25.2301C74.2697 25.1844 74.6048 25.334 74.475 26.1776Z" fill="#E54D3C"/>
<path d="M64.5682 36.2516C63.4509 36.2531 62.3584 35.9251 61.4294 35.3091C60.5005 34.6931 59.7771 33.8169 59.3513 32.7921C58.9255 31.7672 58.8165 30.6399 59.0381 29.5534C59.2597 28.4669 59.8019 27.4703 60.5958 26.6903C61.3897 25.9102 62.3994 25.382 63.4966 25.1728C64.5938 24.9635 65.729 25.0826 66.7578 25.515C67.7867 25.9474 68.6627 26.6736 69.2745 27.6011C69.8863 28.5287 70.2063 29.6158 70.1939 30.7242C70.1933 31.4545 70.047 32.1774 69.7635 32.8513C69.4799 33.5252 69.0646 34.1367 68.5416 34.6506C68.0186 35.1645 67.3982 35.5705 66.7163 35.8453C66.0343 36.12 65.3042 36.2581 64.5682 36.2516ZM67.3706 30.7159C67.3891 29.9758 67.1158 29.2578 66.6088 28.7145C66.1019 28.1712 65.4013 27.8455 64.6562 27.8068C64.0767 27.7694 63.4993 27.9053 62.9986 28.1969C62.4978 28.4885 62.0967 28.9224 61.847 29.4425C61.5974 29.9626 61.5107 30.5451 61.5981 31.1146C61.6856 31.6841 61.9432 32.2145 62.3377 32.6372C62.7321 33.06 63.2453 33.3556 63.8109 33.486C64.3765 33.6164 64.9684 33.5756 65.5103 33.3687C66.0523 33.1618 66.5192 32.7984 66.8508 32.3256C67.1824 31.8527 67.3635 31.2919 67.3706 30.7159Z" fill="#E54D3C"/>
<path d="M75.6395 9.7827C76.6322 7.75463 77.5873 5.83464 78.5046 3.90216C78.5506 3.74544 78.6502 3.6095 78.7863 3.51773C78.9224 3.42596 79.0864 3.38409 79.2502 3.3993C80.1508 3.42839 81.0514 3.3993 81.9562 3.3993C82.04 3.68189 81.8641 3.88139 81.7636 4.08502C80.3002 7.05231 78.8328 10.014 77.3611 12.9702C77.258 13.1911 77.2119 13.4339 77.227 13.6767C77.227 14.8404 77.227 15.9999 77.227 17.1635C77.227 17.5791 77.1642 17.7661 76.6867 17.737C75.9662 17.6913 75.2457 17.7079 74.5252 17.737C74.1608 17.737 74.0686 17.6248 74.077 17.2799C74.0979 16.3199 74.0518 15.3599 74.077 14.3999C74.1004 13.6884 73.9312 12.9838 73.5869 12.3593C72.1669 9.54997 70.7846 6.71983 69.3981 3.89384C69.3455 3.82539 69.3083 3.74662 69.2888 3.66279C69.2693 3.57896 69.268 3.49199 69.285 3.40762C70.2526 3.40762 71.2328 3.40762 72.2172 3.40762C72.5523 3.40762 72.6151 3.64033 72.7198 3.85643L75.2708 9.09699C75.3839 9.29648 75.4887 9.47516 75.6395 9.7827Z" fill="#012E5D"/>
<path d="M113.854 36.2515C111.576 36.1601 109.85 35.1668 108.87 33.093C108.42 32.1647 108.237 31.1312 108.342 30.1065C108.447 29.0818 108.834 28.1056 109.462 27.2856C110.091 26.4656 110.935 25.8335 111.902 25.4591C112.869 25.0847 113.921 24.9825 114.943 25.1637C115.758 25.2895 116.533 25.6012 117.206 26.0742C117.879 26.5473 118.432 27.1688 118.822 27.8899C119.212 28.5549 119.174 28.6297 118.466 28.8541C118.253 28.9206 118.022 28.9497 117.817 29.0369C116.979 29.3943 116.338 29.4525 115.722 28.5299C115.107 27.6073 113.72 27.5408 112.719 28.1143C112.145 28.4109 111.687 28.8893 111.418 29.4737C111.15 30.058 111.086 30.7147 111.236 31.3393C111.34 31.882 111.605 32.3814 111.998 32.7727C112.391 33.1639 112.893 33.429 113.44 33.5336C113.959 33.6615 114.506 33.616 114.997 33.4041C115.488 33.1923 115.894 32.8258 116.154 32.3616C116.185 32.2837 116.232 32.2136 116.294 32.1563C116.355 32.0989 116.428 32.0558 116.508 32.0299C116.589 32.0041 116.673 31.9962 116.757 32.0069C116.841 32.0175 116.921 32.0464 116.992 32.0915C117.473 32.2702 117.98 32.3783 118.479 32.5071C119.157 32.69 119.241 32.8188 118.873 33.4297C117.825 35.171 116.33 36.2182 114.219 36.264L113.854 36.2515Z" fill="#E54D3C"/>
<path d="M121.696 30.6951C121.696 29.9595 121.67 29.2197 121.696 28.4841C121.696 27.9937 121.545 27.815 121.05 27.8067C119.794 27.7735 119.794 27.7569 119.794 26.5226C119.794 25.2883 119.794 25.226 121.05 25.2509C121.578 25.2509 121.687 25.0888 121.683 24.6067C121.683 24.0374 121.411 23.3101 121.821 22.9444C122.232 22.5787 122.902 22.8571 123.463 22.8488C124.644 22.8488 124.645 22.8488 124.645 24.0166C124.645 25.1844 124.645 25.2426 125.901 25.2426C126.395 25.2426 126.894 25.2426 127.388 25.2426C127.732 25.2426 127.845 25.3548 127.866 25.7039C127.983 27.815 127.991 27.8109 125.855 27.8234C124.485 27.8234 124.678 27.6821 124.67 28.9995C124.67 29.9844 124.67 30.9652 124.67 31.9501C124.67 33.1013 125.361 33.679 126.538 33.5003C126.873 33.4565 127.204 33.3828 127.526 33.28C127.916 33.1429 128.004 33.305 128 33.6499C128 34.2982 128 34.9465 128 35.5907C128 35.84 127.954 36.0312 127.677 36.106C126.106 36.5216 123.601 36.5756 122.383 34.8592C121.916 34.1968 121.678 33.4022 121.704 32.5943C121.704 31.9668 121.704 31.3475 121.704 30.7158L121.696 30.6951Z" fill="#E54D3C"/>
</svg>
